<?xml version="1.0" standalone="no"?>
<!DOCTYPE svg PUBLIC "-//W3C//DTD SVG 20010904//EN"
 "http://www.w3.org/TR/2001/REC-SVG-20010904/DTD/svg10.dtd">
<svg version="1.0" xmlns="http://www.w3.org/2000/svg"
 width="128.000000pt" height="128.000000pt" viewBox="0 0 128.000000 128.000000"
 preserveAspectRatio="xMidYMid meet">
<metadata>
Created by potrace 1.13, written by Peter Selinger 2001-2015
</metadata>
<g transform="translate(0.000000,128.000000) scale(0.100000,-0.100000)"
fill="#000000" stroke="none">
<path d="M482 1160 c-281 -74 -481 -331 -482 -621 0 -112 59 -303 104 -334 32
-23 71 -18 132 16 63 36 72 49 55 86 -12 25 -28 27 -72 9 -13 -6 -21 6 -40 56
-20 52 -24 82 -24 168 0 129 24 217 55 200 30 -16 48 -12 67 16 17 26 17 27
-12 50 l-30 23 62 60 c65 64 125 99 212 125 83 25 89 23 93 -26 3 -39 6 -43
33 -46 34 -4 55 18 55 60 0 33 7 34 81 12 87 -26 147 -61 212 -125 l62 -60
-30 -23 c-29 -23 -29 -24 -12 -50 19 -28 37 -32 67 -16 54 29 77 -256 31 -373
-18 -46 -26 -57 -39 -51 -45 18 -61 16 -73 -9 -17 -37 -8 -50 55 -86 118 -66
164 -29 217 176 84 330 -128 676 -467 763 -98 25 -215 25 -312 0z"/>
<path d="M605 631 c-36 -15 -60 -51 -60 -91 0 -44 18 -68 63 -87 29 -12 38
-11 80 6 33 14 93 23 202 32 85 6 163 16 173 21 24 13 21 47 -5 58 -13 5 -95
15 -183 23 -101 10 -171 21 -190 31 -33 17 -50 19 -80 7z"/>
<path d="M480 243 c-40 -16 -53 -80 -24 -121 15 -21 21 -22 184 -22 l170 0 16
25 c20 31 13 91 -13 111 -13 10 -56 13 -168 13 -82 0 -157 -3 -165 -6z"/>
</g>
</svg>
