<?xml version="1.0" standalone="no"?>
<!DOCTYPE svg PUBLIC "-//W3C//DTD SVG 20010904//EN"
 "http://www.w3.org/TR/2001/REC-SVG-20010904/DTD/svg10.dtd">
<svg version="1.0" xmlns="http://www.w3.org/2000/svg"
 width="200.000000pt" height="200.000000pt" viewBox="0 0 200.000000 200.000000"
 preserveAspectRatio="xMidYMid meet">
<metadata>
Created by potrace 1.13, written by Peter Selinger 2001-2015
</metadata>
<g transform="translate(0.000000,200.000000) scale(0.100000,-0.100000)"
fill="#000000" stroke="none">
<path d="M1424 1733 c-150 -174 -139 -151 -109 -224 14 -34 25 -66 25 -70 0
-4 -100 -103 -222 -219 -123 -117 -229 -223 -236 -237 -11 -21 -11 -28 3 -49
9 -14 25 -24 39 -24 28 0 41 10 319 228 l218 171 56 -34 c43 -26 61 -32 74
-24 15 8 299 187 306 194 2 1 -36 16 -85 35 -48 18 -108 41 -133 51 l-47 18
-122 -95 c-68 -52 -124 -93 -126 -91 -2 2 46 53 106 113 l111 109 -31 134
c-17 74 -32 136 -33 138 -2 1 -52 -54 -113 -124z"/>
<path d="M795 1743 c-128 -18 -294 -92 -397 -177 -128 -106 -215 -239 -264
-401 -36 -121 -39 -308 -6 -428 60 -220 215 -411 417 -512 127 -64 223 -87
365 -87 142 0 238 23 365 87 202 101 358 293 417 512 30 115 30 299 -1 410
l-23 83 -46 -27 c-44 -26 -46 -26 -75 -10 -28 17 -29 16 -22 0 49 -114 62
-293 31 -413 -62 -240 -248 -426 -486 -486 -85 -22 -236 -22 -320 0 -236 61
-422 243 -486 477 -24 86 -24 252 0 339 63 232 251 416 486 477 132 33 303 17
437 -42 31 -14 57 -25 58 -25 2 0 -2 16 -8 35 -10 32 -8 38 19 66 28 29 28 31
10 44 -26 19 -157 62 -230 74 -58 11 -179 12 -241 4z"/>
<path d="M788 1409 c-102 -24 -225 -113 -284 -205 -128 -200 -93 -469 82 -623
93 -82 197 -121 325 -121 313 0 543 299 463 605 -8 33 -19 64 -24 69 -4 4 -33
-11 -64 -34 -50 -38 -55 -45 -48 -69 4 -14 7 -60 7 -101 -1 -59 -6 -87 -27
-131 -33 -72 -94 -134 -167 -168 -48 -22 -69 -26 -146 -26 -109 1 -164 23
-241 100 -91 91 -120 234 -73 360 26 69 103 151 174 184 70 33 169 39 246 16
l60 -19 51 51 51 51 -39 20 c-95 48 -242 66 -346 41z"/>
<path d="M850 1089 c-90 -36 -127 -147 -77 -233 40 -71 141 -98 217 -58 34 19
91 104 78 117 -4 4 -22 -5 -42 -20 -77 -58 -159 -51 -192 18 -25 51 -12 98 38
147 33 32 38 40 23 39 -11 0 -31 -5 -45 -10z"/>
</g>
</svg>
